<?xml version="1.0" encoding="UTF-8"?>
<svg id="Layer_1" xmlns="http://www.w3.org/2000/svg" version="1.1" viewBox="0 0 391.99 173">
  <!-- Generator: Adobe Illustrator 30.1.0, SVG Export Plug-In . SVG Version: 2.1.1 Build 136)  -->
  <defs>
    <style>
      .st0, .st1 {
        fill: none;
      }

      .st1 {
        stroke: #000;
        stroke-linecap: round;
        stroke-linejoin: round;
        stroke-width: 2px;
      }
    </style>
  </defs>
  <g>
    <path class="st0" d="M387.92,97.9c-.52-.11-.35.1-.63.31-.25.04-.08-.19-.16-.31-.21-.12-.21.23-.32.32-.05.11-.09.24-.2.31-.14.08-.25,0-.4,0-.07-.12-.04-.31-.16-.41-.19-.05-.23.11-.36.19-.18.08-.25-.06-.36-.17-.06-.06-.21-.04-.24-.13-.05-.08-.03-.22-.11-.29-.08-.06-.17-.01-.25.03-.15.3.21.59.15.87-.01.13-.04.29-.13.37-.17.06-.22-.17-.17-.29,0-.17-.18-.2-.31-.21-.2-.08-.32.14-.49,0-.17-.09.05-.26,0-.39-.13-.2-.27-.38-.45-.52-.06-.47-.51-.1-.83-.24-.16.07-.38.11-.55.23-.17.05-.41,0-.25-.19.18-.1.05-.36-.12-.23-.22.12-.43-.02-.61.11-.11.11-.11.26-.16.39-.06.13-.29.1-.41.07-.19-.02-.36-.34-.19-.48.04-.36-.41-.28-.59-.44-.03-.55.93-.1.99-.65-.11-.37-.19-1.07-.69-1.09-.33-.19-.41.32-.68.23-.88.09.24-1.59-.77-1-.2.03-.26-.26-.2-.4.05-.19.37-.35.08-.47-.2-.1-.31.2-.49.24-.07-.07-.15-.16-.24-.2-.36-.38.32-.47.41-.73.01-.22-.47-.43-.24-.71.3-.39-.48-.37-.63-.15-.18.09-.11.29-.01.4.18.1.13.36.17.52.01.12.1.29-.07.36-.24.15-.46-.04-.69-.04-.1.27-.38.15-.63.19-.08-.03-.09-.08-.01-.12-.1-.15-.22-.28-.31-.44.03-.18.34-.49-.01-.56-.44.01-.16-.52-.44-.67-.08-.08-.2-.04-.27-.08-.09-.15-.18-.28-.36-.36-.33.01-.44.38-.73.35-.22.07-.34-.16-.49-.24-.15-.1-.33-.09-.44-.25-.05-.2-.2-.22-.32-.35-.05-.1-.13-.23-.19-.31-.17-.02-.1.18-.15.27-.04.08-.04.18-.11.24-.09-.04-.2-.03-.31-.09-.07-.11-.04-.31-.05-.49-.14-.12-.37.3-.51.11-.03-.29.63-.57.31-.73-.15-.14-.28-.31-.25-.53.11-.13.33-.18.28-.36-.07-.34-.52-.16-.61-.44-.03-.1-.03-.2-.13-.23-.05-.21-.02-.45-.28-.48-.13-.24-.13-.56-.2-.81-.12-.1-.27-.07-.4-.13-.14-.08-.25-.19-.37-.32-.08-.28.38-.55.6-.67-.25-.73.66-.44.43-.83-.32-.24-.51.16-.83.17-.83-.31.18-.42.24-.72-.05-.2-.3-.18-.43-.07-.14.14-.48,0-.41-.23.08-.38-.15-.54-.51-.49-.1-.12-.2-.36-.36-.4-.56.08-.44-.51-.93-.49-.33.06-.16-.32-.31-.48-.06-.2-.28-.34-.39-.52-.2.06-.28.43-.44.59-.41.25-.33-.32-.23-.53.15-.22.03-.53-.03-.75-.14-.14-.34-.23-.48-.39-.18-.35-.11-.59-.59-.59-.08-.2.24-.44.23-.67-.16-.08-.42-.12-.51-.29,0-.39.84-.1.83-.45-.09-.13-.3,0-.44-.08-.31-.21-.06-.69-.23-.96-.11-.14-.32-.15-.48-.2-.28-.14-.26-.54-.47-.73-.16-.08-.4-.12-.52-.25-.11-.25-.35-.26-.59-.27-.11-.1-.1-.43-.33-.33-.3.21.07.77-.24,1.01-.2.01-.31-.26-.17-.43.05-.23-.1-.49-.32-.57-.88-.14-.16-.35-.03-.65-.4-.26-.83.24-1.13-.44-.04-.48.66.05.65-.36-.16-.08-.63-.22-.4-.48.22-.06.48.2.64-.07.22-.26.54-.55.56-.87-.18-.13-.59-.03-.68-.27-.21-.8.65-.34.87-.67.18-.21.23-.7-.17-.71-.27-.15-.52.31-.71.13-.31-.63.14-1.04-.87-.87-.15-.03-.3-.21-.45-.12-.12.17-.43.17-.48-.01.01-.1.26-.19.16-.32-.05-.03-.14,0-.17-.07-.1-.11-.17-.3-.25-.43-.28-.62.1-.64-.61-1.05-.26-.24-.19-.54-.16-.83-.31-.19-.42-.54-.41-.87-.28-.14-.22-.4-.28-.64-.09-.14-.25-.11-.4-.15-.18-.06-.28-.33-.39-.49-.07-.13-.26-.05-.37-.07-.12-.05-.22-.18-.32-.29l-7.47,53.41h-15.14l9.61-68.72h12.32c-.08-.12-.18-.23-.34-.3-.2-.24-.26-.55-.63-.57-.23-.41-.17-1.03-.12-1.5.13-.35.31-.71.04-1.04-.08-.17-.25-.31-.24-.51-.05-.21.23-.34.23-.52-.09-.47-.3-1-.01-1.44-.22-.24-.25-.58-.37-.87-.23-.91-.15-2.08-1.07-2.59-.51-.24-1.07-.4-1.52-.77-.58-.42-.97-1.06-1.47-1.59-.33-.48-.51-1.07-.95-1.44-.44-.46-1.15-.6-1.6-1.05-.63-.09-1.49-.04-2.16-.03-.55.15-1.12.1-1.63-.16-2.52-1.26-2.81-2.29-3-5.01-.03-.4-.15-1.37-.55-1.83-.47-.44-.68-.97-.55-1.6.14-1.03.52-2.24-.21-3.12-.06-.2-.29-.05-.4-.21.11-.11-.09-.17-.19-.17-.3-.08-.53.06-.79.15-1.1.29-2.18.87-2.96,1.66-.07.08-.17.11-.24.2-.04-.01.06-.08.01-.09-.2.18-.44.2-.71.17-.52-.18-1.34-.26-1.5-.09-.18.09-.39-.02-.57.12-.32.18-.44.55-.57.87-.15.52-.47,1.07-.89,1.4-.58.65-1.54.79-2.3,1.17-1.12.76-.65,2.4-1.68,3.27-.49.27-.91.42-1.48.39-.59.04-1.24.42-1.83.19-.6-.3-1.64-1.02-2.17-.3-.15.14-.47.05-.61.26-.14.17-.11.37-.28.52-.27.32-.5.66-.8.95-.29.19-.62.05-.91-.09-.84-.47-.63-1.2-.85-1.92-.36-.66-1.21-1.06-1.91-1.47-1.04-.61-2.52-.51-3.34-.72-.78.15-1.37-.28-2.1-.33-.3-.21-.5-.53-.79-.76-1.31-1.25-2.75-.94-4.22-.17-.52.21-1.21.2-1.6.63-.37-.08-.74.04-1.04.27-1.71,1.01.46,5.13-4,2.74-.29-.01-.53-.16-.73-.37-.45-.16-.99-.02-1.46-.16-1.69.05-1.35-1.84-1.88-2.92-.48-.7-1.44-.46-2.08-.88-1.38-.59-.58-2.15-1.84-2.86-.74-.41-1.57-.46-2.4-.63-.23-.08-.48.03-.69-.09-.07,0-.35-.04-.24-.13.24-.06-.15-.11-.2-.19-.23-.15-.42-.37-.68-.47-.5-.24-1.06-.17-1.6-.17-.72.34-1.5.52-2.23.85-1.95.81-3.85.07-5.5-.71-1.14-.43-2.38-.47-3.55-.73-2.53-1.05-.77-4.32-1.92-6.09-.75-1.4-1.99-2.51-2.75-3.92-.46-1.78-.24-3-2.1-4.25-2.93-1.89-5.03.77-5.15-3.59.23-1.03-1-2.45-2.06-1.84-.72.41-.81,1.49-1.68,1.71-.33.1-.72.2-1-.05-1.6-1.04-1.02,1.01-3.11,1.2-.53.47-1.25.26-1.86.09-.48-.41-.84-1.05-1.48-1.24-1.68.23-1.96-1.73-3.02-2.6-1.79-1.38-2.26.38-3.26,1.63-3.4,1.1-2.27,1.99-4.49,2.95-.47.22-1.08.86-.56,1.32.2.6.64.94,1.05,1.29.43.59,1.06,1.17,1.25,1.88.48.45.88,1.07.92,1.74.05.84-.76,1.13-1.13,1.75-.78.84-1.74,1.63-.73,2.72.78.34,1.97.05,2.74.24.71.17,1.78.67,1.47,1.57-.2,1.19-1.65,1.44-2.1,2.47-.17.78.59,1.3.81,1.98.85,2.53-3.22-.28-4.25.65-2.13,1.44-1.96.95-4.19.85-.6.03-.92.58-1.39.88-.63.4-1.4.62-1.91,1.17-.84.33-1.55.87-2.27,1.37-.42.18-.62.79-1.11,1.04-1.39,1.63-4.03,2.23-5.27.25-.48-.6-.57-1.32-1.4-1.72-1.22-.62-2.95-.31-3.95.16-2.54.99-3.14-.95-5.01.53-.57,1.04-.91,1.28-.95,2.5-.02.6.59.96.77,1.5.41,1.02.04,2.26.16,3.36.07,1.32,1.4,2.3,1.25,3.67.24,1.72-1.58,2.06-2.64,2.84-.6.75-.54,1.87-1.33,2.54-2.76,2.04-5.24-.31-6.43,4.17-.01.02-.02.05-.03.07h13.46c5.5,0,10.63.62,15.38,1.84,4.76,1.23,8.8,3.22,12.13,5.97,3.33,2.75,5.76,6.33,7.28,10.73,1.52,4.4,1.86,9.74,1.02,16.02-.78,5.57-2.51,10.47-5.19,14.71-2.69,4.24-6,7.8-9.95,10.68-3.95,2.88-8.36,5.06-13.25,6.55-4.89,1.49-9.89,2.23-15,2.23h-24.75l8-57.23c-.25.3-.62.63-1.17,1.03-2.24,2-1.71,4.43-1.45,7.08.05,1-.56,1.44-.57,2.27-.15.98.02,2.16-.76,2.91-.27.19-.45.58-.79.64-.49.02-.97.26-1.46.12-.96.37-2.65.08-2.88,1.32.45,2.97-1.47,1.01-1.91-.45-.13-.77-1.61-1.72-2.98-1.59-.75-.07-1.38.54-2.14.4-1.02-.49-2.14-.95-2.92-1.76-.3-.36-1.2-.56-1.58-1.04-.83-1.02-.87-2.67-.49-3.9.52-1.21-.33-2.52-1.37-3.15-1.17-.34-1.74-1.6-2.84-2.02-1.21-.07-1.42,1.97-.39,2.36,1.02.22,2.97.2,1.95,1.74-.78,1.06-2.45-.49-3.11.76-.25.36-.07,1.01-.61,1.13-.59-.37-.94-1.25-1.68-1.42-.97-.33-1.97.8-1.37,1.71.33.68,1.56.39,1.66,1.25-.24,3.2-3.6,1.49-4.57,2.63-.34,1.37-.09,2.87-.15,4.27,0,1.63,2.29,2.45-.29,3.38-1.04.31-2.31-.94-3.11.07-.84,1,.27,2.52-.44,3.54-.67.93-3.5,2.25-2.94-.11.06-.9,1.6-2.34.47-3.04-.56-.11-1.15-.42-1.68-.15-.37.33-.76.64-1.15.96-.29.14-.52.49-.85.31-.78-.12-1.14-1.1-1.54-1.71-.33-.53-.67-1.13-.89-1.71-.16-.16-.28-.36-.31-.57,0,0,.12.1.07,0-.4-.62-.55-1.36-.84-2.04-.34-.12-.89-.75-1.35-.63-.57.35-1.3.47-1.84.87-.53.57-1.18,1.08-1.56,1.76-1.04,1.62-2.64,1.53-4.07,1.6-1.15.39-2.37.9-3.26,1.78-.5.42-.55,1.06-.32,1.63.16.66-.34,1.24-.39,1.87-.18.7-.22,1.5-.67,2.07-.15,1.37-1.99,2.66-3.26,1.87-.39-.36-.26-.95-.44-1.42-.2-.51-.48-.99-.77-1.46-.1-.29-.38-.48-.63-.63-.18-.09-.48.1-.67.01-.81-.12-1.67-.19-2.35-.68-1.88-1.08-3.22-3.05-5.38-3.56-.42.11-.78-.38-1.05-.64-.07-.19-.36-.08-.45-.25-.22-.18-.48-.54-.48-.63-1.01-.61-2.22-1.02-3.39-.72-.94.19-1.64.97-2.32,1.59-.41.27-.7.81-1.21.72-.96-.85-2.44-1.05-2.94-2.39-.11-.13-.08-.39-.17-.48-.07-.02-.17-.02-.09-.11.27-.52,0-1.23-.55-1.4-1.34-.15-.44,1.73-1.44,2.16-.09.06-.35.29-.29.29.11-.09.24-.17.19.03-.05.16-.19.28-.2.45,0,.12-.24.27-.27.09.02-.32-.15.17-.05.28.05.32.24.59.31.87.34.53,1.01.78,1.44,1.24.1.53.2,1.15.2,1.71-.27.71-.77,1.44-1.36,1.94-.95.31-2.12.63-2.98.03-.54-.76-.39-1.78.19-2.5.74-.71.39-2.18-.71-2.07-.51.21-.99.56-1.55.64-.43.14-.85-.23-1.28-.09-2.61.46-1.2,1.55-4.1,1.11-.32,0-.68-.1-.85-.4.07-.23-.14-.45-.2-.65-.18-.22-.55-.33-.64-.63-.07-.26-.18-.57-.35-.79-.4-.55-1.11-.99-1.79-.75-.73.48-1.06,1.38-1.68,1.98-.7.72-.22,1.78.4,2.4.59.35.83.92.91,1.52.04.55.36,1.18-.04,1.67-.37.33-1,.32-1.35.65-.08.12.07.28-.07.39-.28.27-.28.69-.49,1.01-.63.52-1.18-.55-1.56-.92-.39-.2-.8-.46-1.17-.68-.61-.29-1.51-.29-1.8.45-.32,1.52-.77,3.37-2.44,3.88-.34.19-.66.43-.92.72-.41.22-.95.27-1.19.72-.15.32-.41.6-.47.95-.33.28-.6.57-.83.95-.73,1.02-.5,2.4-.07,3.47.13.46.44.9.52,1.37-.04.58.1,1.13.39,1.63.6.42,1.28.93,1.64,1.6.16.3.33.69.61.89.27.16.69.18.85.51.41.75.6,1.7.16,2.47-.04.14-.16.19-.28.12-.14.08-.08.33-.27.43-.13.29-.45.71-.73.35-.3-.04-.61.04-.91.05-.46.03-.93.11-1.39.05-.56.19-1.16.31-1.76.36-.92.3-2.08.41-3.1.49-1.27-.03-2.63.1-3.74.84-.5.33-1.01.62-1.4,1.08-.51.55-.87,1.32-1.63,1.47-.29,0-.41-.29-.52-.51-.19-.16-.36-.35-.59-.48-.47-.49-1.21-.68-1.78-.24-1.05.15-2,.87-2.54,1.78-.35.93-.43,1.98-.59,2.94-.31.8-.78,1.56-1.08,2.38-.38.57-.71,1.33-.39,1.84.28.13.11.88.37.83.16.05-.1.12-.12.17-.04-.04-.07.02-.12.01-.04-.03-.07-.11-.13-.11-.01.2.22.2.33.33.25.45.74.63,1,1.08.18.51.32,1.08.73,1.46.32.19.62.35.85.65.52.52.46,1.33.77,1.95.13.35.11.72.24,1.04.14.21.33.37.39.63-.19.56-.39,1.12-.59,1.68-.21.31-.48.87-.35,1.07.17-.21.02.16,0,.23,0,.13-.16.24-.19.35.08.06.05.16.04.24-.12.34-.36.62-.57.91-.04.19-.2.43-.4.48-.42.11-.81.42-1.23.29-.52.02-.93.22-1.47.15-.82-.07-1.63-.41-2.35-.77-.04,0-.11-.03-.15-.04,0,.05.08.08.05.13-.03.08-.17-.07-.2-.11-.42-.24-.15-.8-.6-1.05-.83-.67-1.58-1.64-2.68-1.78-1.04-.22-1.95-1-2.96-1.33-.19-.02-.36-.12-.53-.11.1.07-.08.09-.13.08-.06-.17-.36.04-.51.03-.28.02-.56-.1-.8-.23-.77-.52-1.53-1.06-2.22-1.68-.53-.51-.99-1.18-1.79-1.28-1.98-.81-3.85-1.86-5.93-2.48-.12,0-.45-.1-.55-.08.1.11.4.1.48.23-.41.08-.84.04-1.24-.05-.28.05-.52-.18-.76-.19-.08-.07.38-.04.31-.11-.16.05-.55-.09-.59.16-.12.12-.57.27-.45.16.16-.01.27-.06.4-.15.05-.05.17-.2.01-.12-.41.05-.8.14-1.16.29-.1.05-.44.24-.27.19.09-.04-.23.2-.32.28-1.3.36-2.01,1.52-3.03,2.36-.77.59-1.2,1.47-1.44,2.38-.34.49-.38,1.1-.85,1.52.05-.09.09-.21.15-.29.07-.04.16-.08.17-.16-.06.03-.1.08-.16.11-.33.4-.67.83-1.15,1.08-.16.19-.16.51-.39.6-1,.36-2.28,2.25-2.08,3.84,0,1.15.83,2.03,1.68,2.72.45.5.7.45,1.28.48,1.69.59,1.03,2.48.63,3.68-.23,1.46-.83,2.84-1.32,4.22-.09.31-.41.85-.81.64-.15,0-.41,0-.45.19-.14.14-.37.07-.56.07-.16.05-.34.17-.41.31-.3.28-.15.99-.21,1.39-.09.73.61,1.65,1.36,1.75.69.02,1.5-.08,1.7.76.13.54,0,1.22-.45,1.59-.06-.03-.54.06-.56-.05-.16-.11-.28-.22-.49-.24-.35.04-.76-.06-1.07-.25-.79.14-1.43.79-1.66,1.55-.29.83.16,1.58.75,2.16.47.41.96.84.77,1.52-.02.1-.18.21-.17.29.11-.02.71.34.57.44-.33.47-.68.91-1.15,1.23-1.19.84-.9,2.53-1.49,3.7-.47,1.22-2.35,1.83-3.26.81-.69-.82-1.35-1.8-1.82-2.76-.31-.53-.65-1.27-1.39-1.11-.8.1-1.73.36-2,1.2-.17,1.07-.37,2.15-.95,3.08-.31,1.37-.81,2.72-1.31,4.06,2.42.11,6.09-.61,8.54-.24,17.09.79,34.25.87,51.34,1.32,3.19.06,6.53.16,9.72.29.22-.34.66-.55.77-.96.02-.54.21-1.02.31-1.55-.15-1.76-.41-3.59-.91-5.3-.22-.46-.16-.98-.35-1.44-.45-.98-1.3-2.58.51-2.18,3.03.03,6.59.81,9.61.96,1.71-.04-1.24,2.54,1.44,1.92,11.8-.25,23.92-.35,35.74-.33,8.54-.15,17.17-.37,25.71-.63,2.07-.81,3.34,2.29,3.82.41.46.53,1.89-.65,2.67-.48,13.17.15,26.44,1.69,39.62,1.67,12.9.73,25.74-1.77,38.63-.31,19.78,1.33,39.73.06,59.54.28,1.05.24,4.4-.12,5.38-.17.12-.52.7-.68.69-1.24.1-.12.29-.16.45-.19.14-.08.23-.22.35-.35.11-.12.27-.14.35-.32-.02-.07.09-.06.12-.04,0-.12.04-.17.04-.28.03,0,0-.06,0-.08,0-.13.12.02.13-.08,0-.06.1-.09.12-.03.06-.07.16-.05.24-.03.19.12.41,0,.63-.08.29-.08.48-.34.57-.59.02-.08.09-.07.15-.05.05-.04.07-.12.13-.15.23-.06.34,0,.56-.13.15-.12.46-.16.52-.28.04-.18.12.13.2.08.03.06.09-.03.15-.01.06-.06.2.09.2-.05.14-.16.36-.12.48-.31.19-.07.18-.29.39-.33.34-.12.74-.12.96-.41.2-.02.22-.21.4-.28.03-.12-.07-.16.07-.21.11-.03.27,0,.4-.08.13,0,.23-.19.35-.08.13-.05.17-.17.33-.08.32.04.67-.29.92-.01.58.21,1.19.16,1.79.16.36.02.65-.24,1-.12.75-.06,1.37-.42,2.02-.75.1-.05-.02-.15.07-.21.06-.03.1-.05.11-.12.02-.04.26-.1.16-.16,0-.11.29-.2.41-.2.08-.14.27-.23.45-.2.19-.11.41-.39.64-.21.55-.46,1.21-.68,1.9-.91.31-.12.6-.34.93-.33.2-.23.58-.06.81-.23,1.48-.64,3-1.02,4.45-1.68.33-.14.71-.13,1.07-.12.14-.03.28-.03.44-.09.04-.04.14.03.08.07.05,0,.11-.03.16-.01.12.03.22-.11.33-.13.05-.06.22.04.21-.08.19.01.41.07.59,0,.22-.07.42-.04.41-.29-.05,0-.05-.11-.04-.15-.09-.07.07-.06.09-.08.07.05.12-.02.19-.04,0-.14-.06-.39-.04-.56.07,0,.05-.05.09-.11.09-.02.03-.06-.03-.08-.1-.04-.3-.08-.28-.2.12-.04,0-.17.12-.2.05-.11-.06-.18-.16-.17-.02-.14.17-.11.15-.23.11-.1-.14-.27-.13-.41-.24-.33.31-.25.47-.35.2-.18.32-.5.49-.75.15-.24.51-.31.44-.67-.07-.17.12-.19.2-.27.04-.17-.05-.41-.03-.61.07-.13-.09-.17-.15-.27-.08-.23.2-.37.36-.44.17-.03.26-.19.33-.32.17-.04.33-.11.48-.19.06-.02.19.05.16-.07.07-.31-.25-1.09.37-.65.12.03.25,0,.31-.13.22.06.39.1.61.09.15.05.26-.17.39-.2.24,0,.46.02.71-.07.11.06.1.27.25.33.16-.03.38.09.51.17.08-.1.23.02.31-.07.14-.23.24-.52.49-.61.13-.04.25-.06.36-.13.18,0,.33.04.51-.07.15-.01.3.05.43.12.12-.04.16-.15.29-.19.17-.22.5-.15.65-.39.11-.03.27,0,.4-.05.1.04.17-.1.31-.05.04-.25.35-.19.52-.25.24-.27.64-.2.97-.28.04-.05.01-.1-.01-.15-.1-.21.18-.16.27-.24.2-.11.41-.14.61-.24.08-.29.4-.27.59-.4.07-.14-.1-.4.16-.44.15-.03.38-.13.32-.29-.2-.08-.35-.3-.48-.44.14-.24.3-.44.49-.6.05-.28.32-.46.45-.72-.04-.17-.08-.27-.15-.4.02-.16-.13-.28-.11-.43,0-.15.06-.31.08-.47.06-.07.29-.35.16-.29-.15,0-.21-.21-.33-.25-.11.02-.21-.01-.15-.13-.03-.06-.12-.13-.09-.23-.02-.07-.11-.02-.15-.07,0-.09-.08-.16-.05-.24.2-.04.03-.23.08-.35-.03-.25.18-.27.32-.4.08.08.12.13.23.12.1-.04.05-.13.08-.2-.02-.09.09-.16.13-.25.14.02.17.15.31.07.13.03.18-.05.27-.15.02-.14.22,0,.25-.11.07-.05.05-.17.09-.24.1-.06.26-.12.24-.29.12-.13-.06-.25-.03-.37-.08-.21.27-.44.33-.19.11.1.19-.26.29-.09.02-.01.05-.02.04-.05-.06-.18.15.06.17.07.15-.22.6-.05.79-.29.11.06.08.21.21.24.11-.02.18-.13.25-.21.13-.01.25.1.35,0,.03-.14.16-.27.2-.41-.01-.14.14,0,.23-.05.09.02.05-.11.13-.13.07-.14.14-.27.21-.39.01-.06.09-.08.15-.07.03-.06.06-.12.12-.15.14-.11.41-.02.49.15,0,.1.09,0,.13-.03,0-.06-.03-.15.03-.2.16-.29.08-.62.17-.93.11-.09.33-.14.48-.16.11.09.31.15.45.08.14-.11.05-.3.07-.48-.09-.24.03-.43-.03-.65-.03-.13-.17-.25-.19-.39.08-.16-.16-.36.03-.45.09-.18.3-.05.41-.21.01-.16-.11-.24-.23-.32.05-.08-.03-.12-.08-.15-.05,0-.03-.14-.05-.19-.04-.05,0-.1.03-.13-.01-.07-.18-.08-.11-.17.09-.07.17-.17.09-.27.05-.09.05-.3-.03-.37-.11-.06.05-.11.03-.2-.08-.14-.28-.4-.25-.56.14-.21.27-.57.56-.47.08-.18.28-.19.41-.29.03-.13.23-.11.32-.21.29-.23.7-.35.89-.53.05-.03.11.06.16.11.06.06.14-.05.2-.04.05-.04.08-.12.08-.16.19.04.18-.27.37-.29.09.02.12-.09.17-.12.08.05.18-.07.25-.04.06,0,.06-.07.03-.11.06-.02.05-.09.07-.13-.05-.15.15-.22.25-.23,0,.06.13.16.17.07.04,0,.1-.02.08-.07.1-.19.46-.09.59-.23.19-.22.34-.53.53-.69.42-.32.83-.61,1.31-.88.05-.09.14-.14.09-.25.15-.16.5-.28.71-.44.53-.31.98-.83,1.43-1.05,0,.04.03.12.05.09.05-.06.1-.05.15-.01.11-.1.16-.23.32-.27.04.08.11-.05.12,0,.11.03.23,0,.31-.11-.18-.14-.03-.33.11-.36.08-.01.14-.11.21-.05.06.03.09.22.19.13.03-.08.17-.11.2-.2.07-.12.21-.14.33-.25.05-.14.03-.27.21-.33.15-.08.29-.2.44-.23.07.31.41.05.45-.12.01-.05.03-.06-.03-.08.06-.08.18-.1.29-.13.15-.09.4-.28.56-.23.07.07.09-.11.13-.05.14.07.19-.08.24-.16.07,0,.15-.04.2.01.08.01.08-.07.13-.09-.01-.07.15-.07.17-.13.02-.1.12-.13.2-.17.09-.04.15.03.24.04.04-.02.04-.07.04-.12.05-.04.14-.07.13-.13.1-.04.19.03.28,0,.43.03.8-.4,1.16-.47.24.06.4-.21.6-.16.3-.15.59-.33.95-.33.2.02.32-.07.47-.16.07-.05.23-.03.28-.15.25-.04.49-.07.71-.21.06-.07.13-.06.09-.17-.05.01.04-.08-.03-.09,0-.12.16-.08.23-.13.29-.04-.08-.4.07-.52.05.03.08,0,.13,0,.03.06.09.09.17.09.04-.03.01-.06.01-.11.05-.06.13.03.19-.03.1-.07.29-.12.41-.12.03-.14.17-.17.24-.27,1.31-2.14,4.25-4.22,6.09-6.25,3.62-3.56,7.69-7.13,10.96-10.89-.24-.33-.61-.15-.81.12ZM275.36,92.93c.65,2.69,1.76,5.02,3.35,6.99,1.58,1.97,3.61,3.51,6.07,4.61,2.46,1.1,5.31,1.65,8.54,1.65s6.21-.37,8.74-1.12c2.52-.74,4.53-1.5,6.02-2.28l1.55-11.16h-12.33l2.04-13.98h26.89l-5.05,35.91c-4.85,2.33-9.77,4.01-14.75,5.05-4.98,1.03-10,1.55-15.04,1.55-5.37,0-10.21-.84-14.51-2.52-4.3-1.68-7.88-4.09-10.73-7.23-2.85-3.14-4.89-6.94-6.12-11.41-1.23-4.46-1.46-9.45-.68-14.95.78-5.5,2.41-10.48,4.9-14.95,2.49-4.46,5.6-8.27,9.32-11.4,3.72-3.14,7.97-5.55,12.76-7.23,4.79-1.68,9.87-2.52,15.24-2.52s10.47.66,14.9,1.99c4.43,1.33,8.17,3.61,11.21,6.84l-12.33,11.65c-1.75-2.14-3.85-3.75-6.31-4.85-2.46-1.1-5.63-1.65-9.51-1.65-3.24,0-6.25.55-9.03,1.65-2.78,1.1-5.24,2.64-7.38,4.61-2.14,1.97-3.9,4.32-5.29,7.04-1.39,2.72-2.31,5.66-2.77,8.83-.45,3.24-.36,6.2.29,8.88Z"/>
    <path class="st0" d="M219.45,103.37c3.11-.71,5.87-1.89,8.3-3.54,2.43-1.65,4.45-3.82,6.07-6.5,1.62-2.68,2.72-5.97,3.3-9.85.45-3.36.24-6.29-.63-8.78-.87-2.49-2.28-4.55-4.22-6.16-1.94-1.62-4.29-2.83-7.04-3.64-2.75-.81-5.71-1.21-8.88-1.21h-8.93l-5.73,40.77h7.86c3.49,0,6.79-.35,9.9-1.07Z"/>
    <path d="M209.36,118.41c5.11,0,10.11-.74,15-2.23,4.88-1.49,9.3-3.67,13.25-6.55,3.95-2.88,7.26-6.44,9.95-10.68,2.68-4.24,4.42-9.14,5.19-14.71.84-6.28.5-11.61-1.02-16.02-1.52-4.4-3.95-7.97-7.28-10.73-3.33-2.75-7.38-4.74-12.13-5.97-4.76-1.23-9.89-1.84-15.38-1.84h-13.46c-.62,1.27-.29,2.81-.87,4.11-.34.98-.94,1.98-1.67,2.71-.99.63-1.99,1.27-2.98,1.88-.45.1-.93-.24-1.17-.53-.17-.02.03-.18-.03-.27-.1-.12-.26-.18-.32-.31.08.08.07,0,.01-.03-.22-.04-.43-.19-.67-.17-.68.27-1.52.22-2.1.71-.92,1.61-.1,2.24-1.06,3.39l-8,57.23h24.75ZM207.42,63.67h8.93c3.17,0,6.13.4,8.88,1.21,2.75.81,5.1,2.02,7.04,3.64,1.94,1.62,3.35,3.67,4.22,6.16.87,2.49,1.08,5.42.63,8.78-.58,3.88-1.68,7.17-3.3,9.85-1.62,2.69-3.64,4.85-6.07,6.5-2.43,1.65-5.19,2.83-8.3,3.54-3.11.71-6.41,1.07-9.9,1.07h-7.86l5.73-40.77Z"/>
    <path d="M277.83,75.22c1.39-2.72,3.15-5.06,5.29-7.04,2.14-1.97,4.59-3.51,7.38-4.61,2.78-1.1,5.79-1.65,9.03-1.65,3.88,0,7.05.55,9.51,1.65,2.46,1.1,4.56,2.72,6.31,4.85l12.33-11.65c-3.04-3.23-6.78-5.52-11.21-6.84-4.43-1.33-9.4-1.99-14.9-1.99s-10.45.84-15.24,2.52c-4.79,1.68-9.04,4.09-12.76,7.23-3.72,3.14-6.83,6.94-9.32,11.4-2.49,4.46-4.13,9.45-4.9,14.95-.78,5.5-.55,10.48.68,14.95,1.23,4.46,3.27,8.27,6.12,11.41,2.85,3.14,6.42,5.55,10.73,7.23,4.3,1.68,9.14,2.52,14.51,2.52,5.05,0,10.06-.52,15.04-1.55,4.98-1.03,9.9-2.72,14.75-5.05l5.05-35.91h-26.89l-2.04,13.98h12.33l-1.55,11.16c-1.49.78-3.49,1.54-6.02,2.28-2.52.74-5.44,1.12-8.74,1.12s-6.08-.55-8.54-1.65c-2.46-1.1-4.48-2.64-6.07-4.61-1.59-1.97-2.7-4.3-3.35-6.99-.65-2.68-.74-5.64-.29-8.88.45-3.17,1.37-6.12,2.77-8.83Z"/>
    <path d="M333.6,118.41h15.14l7.47-53.41c-.07-.07-.13-.14-.21-.18-.49-.63.26-1.01-.69-1.44-.69-1.1-1.42.28-1.36-1.17-.13-.23-.51-.16-.73-.29-.32-.53-.08-1.24-.53-1.75-.09-.52.65-.4.96-.37.42.29.8-.2.81-.61.09-.42.34-.86.39-1.28,0-.39.04-.87-.07-1.21-.66-.16-.82-.96-.56-1.51.12-.65.87.05,1.27-.31.34-.62.59-1.53.16-2.14-.15-.31,0-.72-.28-.96-.1-.51.57-.91.48-1.39-.13-.22-.18-.48-.31-.69h-12.32l-9.61,68.72Z"/>
  </g>
  <g>
    <path class="st1" d="M9.52,166.57c-.13-1.3-.58-2.5-2.06-2.55-.98-.13-1.49-.76-2.51.01-1.5,1.07-.46,3.13.4,4.3.03.95,2.54.59,3.08.71.52-.73,1.13-1.52,1.08-2.47Z"/>
    <path class="st1" d="M388.73,97.78c-.24-.33-.61-.15-.81.12-.52-.11-.35.1-.63.31-.25.04-.08-.19-.16-.31-.21-.12-.21.23-.32.32-.05.11-.09.24-.2.31-.14.08-.25,0-.4,0-.07-.12-.04-.31-.16-.41-.19-.05-.23.11-.36.19-.18.08-.25-.06-.36-.17-.06-.06-.21-.04-.24-.13-.05-.08-.03-.22-.11-.29-.08-.06-.17-.01-.25.03-.15.3.21.59.15.87-.01.13-.04.29-.13.37-.17.06-.22-.17-.17-.29,0-.17-.18-.2-.31-.21-.2-.08-.32.14-.49,0-.17-.09.05-.26,0-.39-.13-.2-.27-.38-.45-.52-.06-.47-.51-.1-.83-.24-.16.07-.38.11-.55.23-.17.05-.41,0-.25-.19.18-.1.05-.36-.12-.23-.22.12-.43-.02-.61.11-.11.11-.11.26-.16.39-.06.13-.29.1-.41.07-.19-.02-.36-.34-.19-.48.04-.36-.41-.28-.59-.44-.03-.55.93-.1.99-.65-.11-.37-.19-1.07-.69-1.09-.33-.19-.41.32-.68.23-.88.09.24-1.59-.77-1-.2.03-.26-.26-.2-.4.05-.19.37-.35.08-.47-.2-.1-.31.2-.49.24-.07-.07-.15-.16-.24-.2-.36-.38.32-.47.41-.73.01-.22-.47-.43-.24-.71.3-.39-.48-.37-.63-.15-.18.09-.11.29-.01.4.18.1.13.36.17.52.01.12.1.29-.07.36-.24.15-.46-.04-.69-.04-.1.27-.38.15-.63.19-.08-.03-.09-.09-.01-.12-.1-.15-.22-.28-.31-.44.03-.18.34-.49-.01-.56-.44.01-.16-.52-.44-.67-.08-.08-.2-.04-.27-.08-.09-.15-.18-.28-.36-.36-.33.01-.44.38-.73.35-.22.07-.34-.16-.49-.24-.15-.1-.33-.09-.44-.25-.05-.2-.2-.22-.32-.35-.05-.1-.13-.23-.19-.31-.17-.02-.1.18-.15.27-.04.08-.04.18-.11.24-.09-.04-.2-.03-.31-.09-.07-.11-.04-.31-.05-.49-.14-.12-.37.3-.51.11-.03-.29.63-.57.31-.73-.15-.14-.28-.31-.25-.53.11-.13.33-.18.28-.36-.07-.34-.52-.16-.61-.44-.03-.1-.03-.2-.13-.23-.05-.21-.02-.45-.28-.48-.13-.24-.13-.56-.2-.81-.12-.1-.27-.07-.4-.13-.14-.08-.25-.19-.37-.32-.08-.28.38-.55.6-.67-.25-.73.66-.44.43-.83-.32-.24-.51.16-.83.17-.83-.31.18-.42.24-.72-.05-.2-.3-.18-.43-.07-.14.14-.48,0-.41-.23.08-.38-.15-.54-.51-.49-.1-.12-.2-.36-.36-.4-.56.08-.44-.51-.93-.49-.33.06-.16-.32-.31-.48-.06-.2-.28-.34-.39-.52-.2.06-.28.43-.44.59-.41.25-.33-.32-.23-.53.15-.22.03-.53-.03-.75-.14-.14-.34-.23-.48-.39-.18-.35-.11-.59-.59-.59-.08-.2.24-.44.23-.67-.16-.08-.42-.12-.51-.29,0-.39.84-.1.83-.45-.09-.13-.3,0-.44-.08-.31-.21-.06-.69-.23-.96-.11-.14-.32-.15-.48-.2-.28-.14-.26-.54-.47-.73-.16-.08-.4-.12-.52-.25-.11-.25-.35-.26-.59-.27-.11-.1-.1-.43-.33-.33-.3.21.07.77-.24,1.01-.2.01-.31-.26-.17-.43.05-.23-.1-.49-.32-.57-.88-.14-.16-.35-.03-.65-.4-.26-.83.24-1.13-.44-.04-.48.66.05.65-.36-.16-.08-.63-.22-.4-.48.22-.06.48.2.64-.07.22-.26.54-.55.56-.87-.18-.13-.59-.03-.68-.27-.21-.8.65-.34.87-.67.18-.21.23-.7-.17-.71-.27-.15-.52.31-.71.13-.31-.63.14-1.04-.87-.87-.15-.03-.3-.21-.45-.12-.12.17-.43.17-.48-.01.01-.1.26-.19.16-.32-.05-.03-.14,0-.17-.07-.1-.11-.17-.3-.25-.43-.28-.62.1-.64-.61-1.05-.26-.24-.19-.54-.16-.83-.31-.19-.42-.54-.41-.87-.28-.14-.22-.4-.28-.64-.09-.14-.25-.11-.4-.15-.18-.06-.28-.33-.39-.49-.07-.13-.26-.05-.37-.07-.19-.08-.34-.36-.53-.47-.49-.63.26-1.01-.69-1.44-.69-1.1-1.42.28-1.36-1.17-.13-.23-.51-.16-.73-.29-.32-.53-.08-1.24-.53-1.75-.09-.52.65-.4.96-.37.42.29.8-.2.81-.61.09-.42.34-.86.39-1.28,0-.39.04-.87-.07-1.21-.66-.16-.82-.96-.56-1.51.12-.65.87.05,1.27-.31.34-.62.59-1.53.16-2.14-.15-.31,0-.72-.28-.96-.1-.51.57-.91.48-1.39-.21-.35-.22-.81-.65-.99-.2-.24-.26-.55-.63-.57-.23-.41-.17-1.03-.12-1.5.13-.35.3-.71.04-1.04-.08-.17-.25-.31-.24-.51-.05-.21.23-.34.23-.52-.09-.47-.3-1-.01-1.44-.22-.24-.25-.58-.37-.87-.23-.91-.15-2.08-1.07-2.59-.51-.24-1.07-.4-1.52-.77-.58-.42-.97-1.06-1.47-1.59-.33-.48-.51-1.07-.95-1.44-.44-.46-1.15-.6-1.6-1.05-.63-.09-1.49-.04-2.16-.03-.55.15-1.12.1-1.63-.16-2.52-1.26-2.81-2.29-3-5.01-.03-.4-.15-1.37-.55-1.83-.47-.44-.68-.97-.55-1.6.14-1.03.52-2.24-.21-3.12-.06-.2-.29-.05-.4-.21.11-.11-.09-.17-.19-.17-.3-.08-.53.06-.79.15-1.1.29-2.18.87-2.96,1.66-.07.08-.17.11-.24.2-.04-.01.06-.08.01-.09-.2.18-.44.2-.71.17-.52-.18-1.34-.26-1.5-.09-.18.09-.39-.02-.57.12-.32.18-.44.55-.57.87-.15.52-.47,1.07-.89,1.4-.58.65-1.54.79-2.3,1.17-1.12.76-.65,2.4-1.68,3.27-.49.27-.91.42-1.48.39-.59.04-1.24.42-1.83.19-.6-.3-1.64-1.02-2.17-.3-.15.14-.47.05-.61.26-.14.17-.11.37-.28.52-.27.32-.5.66-.8.95-.29.19-.62.05-.91-.09-.84-.47-.63-1.2-.85-1.92-.36-.66-1.21-1.06-1.91-1.47-1.04-.61-2.52-.51-3.34-.72-.78.15-1.37-.28-2.1-.33-.3-.21-.5-.53-.79-.76-1.31-1.25-2.75-.94-4.22-.17-.52.21-1.21.2-1.6.63-.37-.08-.74.04-1.04.27-1.71,1.01.46,5.13-4,2.74-.29-.01-.52-.16-.73-.37-.45-.16-.99-.02-1.46-.16-1.69.05-1.35-1.84-1.88-2.92-.48-.7-1.44-.46-2.08-.88-1.38-.59-.58-2.15-1.84-2.86-.74-.41-1.57-.46-2.4-.63-.23-.08-.48.03-.69-.09-.07,0-.35-.04-.24-.13.24-.06-.15-.11-.2-.19-.23-.15-.42-.37-.68-.47-.5-.24-1.06-.17-1.6-.17-.72.34-1.5.52-2.23.85-1.95.81-3.85.07-5.5-.71-1.14-.43-2.38-.47-3.55-.73-2.53-1.05-.77-4.32-1.92-6.09-.75-1.4-1.99-2.51-2.75-3.92-.46-1.78-.24-3-2.1-4.25-2.93-1.89-5.03.77-5.15-3.59.23-1.03-1-2.45-2.06-1.84-.72.41-.81,1.49-1.68,1.71-.33.1-.72.2-1-.05-1.6-1.04-1.02,1.01-3.11,1.2-.53.47-1.25.26-1.86.09-.48-.41-.84-1.05-1.48-1.24-1.68.23-1.96-1.73-3.02-2.6-1.79-1.38-2.26.38-3.26,1.63-3.4,1.1-2.27,1.99-4.49,2.95-.47.22-1.08.86-.56,1.32.2.6.64.94,1.05,1.29.43.59,1.06,1.17,1.25,1.88.48.45.88,1.07.92,1.74.05.84-.76,1.13-1.13,1.75-.78.84-1.74,1.63-.73,2.72.78.34,1.97.05,2.74.24.71.17,1.78.67,1.47,1.57-.2,1.19-1.65,1.44-2.1,2.47-.17.78.59,1.3.81,1.98.85,2.53-3.22-.28-4.25.65-2.13,1.44-1.96.95-4.19.85-.6.03-.92.58-1.39.88-.63.4-1.4.62-1.91,1.17-.84.33-1.55.87-2.27,1.37-.42.18-.62.79-1.11,1.04-1.39,1.63-4.03,2.23-5.27.25-.48-.6-.57-1.32-1.4-1.72-1.22-.62-2.95-.31-3.95.16-2.54.99-3.14-.95-5.01.53-.57,1.04-.91,1.28-.95,2.5-.02.6.59.96.77,1.5.41,1.02.04,2.26.16,3.36.07,1.32,1.4,2.3,1.25,3.67.24,1.72-1.58,2.06-2.64,2.84-.6.75-.54,1.87-1.33,2.54-2.76,2.04-5.24-.31-6.43,4.17-.66,1.28-.32,2.86-.91,4.18-.34.98-.94,1.98-1.67,2.71-.99.63-1.99,1.27-2.98,1.88-.45.1-.93-.24-1.17-.53-.17-.02.03-.18-.03-.27-.1-.12-.26-.18-.32-.31.08.08.07,0,.01-.03-.22-.04-.43-.19-.67-.17-.68.27-1.52.22-2.1.71-1.16,2.02.44,2.49-2.23,4.42-2.24,2-1.71,4.43-1.45,7.08.05,1-.56,1.44-.57,2.27-.15.98.02,2.16-.76,2.91-.27.19-.45.58-.79.64-.49.02-.97.26-1.46.12-.96.37-2.65.08-2.88,1.32.45,2.97-1.47,1.01-1.91-.45-.13-.77-1.61-1.72-2.98-1.59-.75-.07-1.38.54-2.14.4-1.02-.49-2.14-.95-2.92-1.76-.3-.36-1.2-.56-1.58-1.04-.83-1.02-.87-2.67-.49-3.9.52-1.21-.33-2.52-1.37-3.15-1.17-.34-1.74-1.6-2.84-2.02-1.21-.07-1.42,1.97-.39,2.36,1.02.22,2.97.2,1.95,1.74-.78,1.06-2.45-.49-3.11.76-.25.36-.07,1.01-.61,1.13-.59-.37-.94-1.25-1.68-1.42-.97-.33-1.97.8-1.37,1.71.33.68,1.56.39,1.66,1.25-.24,3.2-3.6,1.49-4.57,2.63-.34,1.37-.09,2.87-.15,4.27,0,1.63,2.29,2.45-.29,3.38-1.04.31-2.31-.94-3.11.07-.84,1,.27,2.52-.44,3.54-.67.93-3.5,2.25-2.94-.11.06-.9,1.6-2.34.47-3.04-.56-.11-1.15-.42-1.68-.15-.37.33-.76.64-1.15.96-.29.14-.52.49-.85.31-.78-.12-1.14-1.1-1.54-1.71-.33-.53-.67-1.13-.89-1.71-.16-.16-.28-.36-.31-.57,0,0,.12.1.07,0-.4-.62-.55-1.36-.84-2.04-.34-.12-.89-.75-1.35-.63-.57.35-1.3.47-1.84.87-.53.57-1.18,1.08-1.56,1.76-1.04,1.62-2.64,1.53-4.07,1.6-1.15.39-2.37.9-3.26,1.78-.5.42-.55,1.06-.32,1.63.16.66-.34,1.24-.39,1.87-.18.7-.22,1.5-.67,2.07-.15,1.37-1.99,2.66-3.26,1.87-.39-.36-.26-.95-.44-1.42-.2-.51-.48-.99-.77-1.46-.1-.29-.38-.48-.63-.63-.18-.09-.48.1-.67.01-.81-.12-1.67-.19-2.35-.68-1.88-1.08-3.22-3.05-5.38-3.56-.42.11-.78-.38-1.05-.64-.07-.19-.36-.08-.45-.25-.22-.18-.48-.54-.48-.63-1.01-.61-2.22-1.02-3.39-.72-.94.19-1.64.97-2.32,1.59-.41.27-.7.81-1.21.72-.96-.85-2.44-1.05-2.94-2.39-.11-.13-.08-.39-.17-.48-.07-.02-.17-.02-.09-.11.27-.52,0-1.23-.55-1.4-1.34-.15-.44,1.73-1.44,2.16-.09.06-.35.29-.29.29.11-.09.24-.17.19.03-.05.16-.19.28-.2.45,0,.12-.24.27-.27.09.03-.32-.15.17-.05.28.05.32.24.59.31.87.34.53,1.01.78,1.44,1.24.1.53.2,1.15.2,1.71-.27.71-.77,1.44-1.36,1.94-.95.31-2.12.63-2.98.03-.54-.76-.39-1.78.19-2.5.74-.71.39-2.18-.71-2.07-.51.21-.98.55-1.55.64-.43.14-.85-.23-1.28-.09-2.61.46-1.19,1.55-4.1,1.11-.32,0-.68-.1-.85-.4.07-.23-.14-.45-.2-.65-.18-.22-.55-.33-.64-.63-.07-.26-.18-.57-.35-.79-.4-.55-1.11-.99-1.79-.75-.73.48-1.06,1.38-1.68,1.98-.7.72-.22,1.78.4,2.4.59.35.83.92.91,1.52.04.55.36,1.18-.04,1.67-.37.33-1,.32-1.35.65-.08.12.07.28-.07.39-.28.27-.28.69-.49,1.01-.63.52-1.18-.55-1.56-.92-.39-.2-.8-.46-1.17-.68-.61-.29-1.51-.29-1.8.45-.32,1.52-.77,3.37-2.44,3.88-.34.19-.66.43-.92.72-.41.22-.95.27-1.19.72-.15.32-.41.6-.47.95-.33.28-.6.57-.83.95-.73,1.02-.5,2.4-.07,3.47.13.46.44.9.52,1.37-.04.58.1,1.13.39,1.63.6.42,1.28.93,1.64,1.6.16.3.33.69.61.89.27.16.69.18.85.51.41.75.6,1.7.16,2.47-.04.14-.16.19-.28.12-.14.08-.09.33-.27.43-.13.29-.45.71-.73.35-.3-.04-.61.04-.91.05-.46.03-.93.11-1.39.05-.56.19-1.16.31-1.76.36-.92.3-2.08.41-3.1.49-1.27-.03-2.63.1-3.74.84-.5.33-1.01.62-1.4,1.08-.51.55-.87,1.32-1.63,1.47-.29,0-.41-.29-.52-.51-.19-.16-.36-.35-.59-.48-.47-.49-1.21-.68-1.78-.24-1.05.15-2,.87-2.54,1.78-.35.93-.43,1.98-.59,2.94-.31.8-.78,1.56-1.08,2.38-.38.57-.71,1.33-.39,1.84.28.13.11.88.37.83.16.05-.1.12-.12.17-.04-.04-.07.02-.12.01-.04-.03-.07-.11-.13-.11-.01.2.22.2.33.33.25.45.74.63,1,1.08.18.51.32,1.08.73,1.46.32.19.62.35.85.65.52.52.46,1.33.77,1.95.13.35.11.72.24,1.04.14.21.33.37.39.63-.19.56-.39,1.12-.59,1.68-.21.31-.48.87-.35,1.07.17-.21.02.16,0,.23,0,.13-.16.24-.19.35.08.06.05.16.04.24-.12.34-.36.62-.57.91-.04.19-.2.43-.4.48-.42.11-.81.42-1.23.29-.52.02-.93.22-1.47.15-.82-.07-1.63-.41-2.35-.77-.04,0-.11-.03-.15-.04,0,.05.08.08.05.13-.03.08-.17-.07-.2-.11-.42-.24-.15-.8-.6-1.05-.83-.67-1.58-1.64-2.68-1.78-1.04-.22-1.95-1-2.96-1.33-.19-.02-.36-.12-.53-.11.1.07-.08.09-.13.08-.06-.17-.36.04-.51.03-.28.02-.56-.1-.8-.23-.77-.52-1.53-1.06-2.22-1.68-.53-.51-.99-1.18-1.79-1.28-1.98-.81-3.85-1.86-5.93-2.48-.12,0-.45-.1-.55-.08.1.11.4.1.48.23-.41.08-.84.04-1.24-.05-.28.05-.52-.18-.76-.19-.08-.07.38-.04.31-.11-.16.05-.55-.09-.59.16-.12.12-.57.27-.45.16.16-.01.27-.06.4-.15.05-.05.17-.2.01-.12-.41.05-.8.14-1.16.29-.1.05-.44.24-.27.19.09-.04-.23.2-.32.28-1.3.36-2.01,1.52-3.03,2.36-.77.59-1.2,1.47-1.44,2.38-.34.49-.38,1.1-.85,1.52.05-.09.09-.21.15-.29.07-.04.16-.08.17-.16-.06.03-.1.08-.16.11-.33.4-.67.83-1.15,1.08-.16.19-.16.51-.39.6-1,.36-2.28,2.25-2.08,3.84,0,1.15.83,2.03,1.68,2.72.45.5.7.45,1.28.48,1.69.59,1.03,2.48.63,3.68-.23,1.46-.83,2.85-1.32,4.22-.09.31-.41.85-.81.64-.15,0-.41,0-.45.19-.14.14-.37.07-.56.07-.16.05-.34.17-.41.31-.3.28-.15.99-.21,1.39-.09.73.61,1.65,1.36,1.75.69.02,1.5-.08,1.7.76.13.54,0,1.22-.45,1.59-.06-.03-.54.06-.56-.05-.16-.11-.28-.22-.49-.24-.35.04-.76-.06-1.07-.25-.79.14-1.43.79-1.66,1.55-.29.83.16,1.58.75,2.16.47.41.96.84.77,1.52-.02.1-.18.21-.17.29.11-.02.71.34.57.44-.33.47-.68.91-1.15,1.23-1.19.84-.9,2.53-1.49,3.7-.47,1.22-2.35,1.83-3.26.81-.69-.82-1.35-1.8-1.82-2.76-.31-.53-.65-1.27-1.39-1.11-.8.1-1.73.36-2,1.2-.17,1.07-.37,2.15-.95,3.08-.31,1.37-.81,2.72-1.31,4.06,2.42.11,6.09-.61,8.54-.24,17.09.79,34.25.87,51.34,1.32,3.19.06,6.53.16,9.72.29.22-.34.66-.54.77-.96.02-.54.21-1.02.31-1.55-.15-1.76-.41-3.59-.91-5.3-.22-.46-.16-.98-.35-1.44-.45-.98-1.3-2.58.51-2.18,3.03.03,6.59.81,9.61.96,1.71-.04-1.24,2.54,1.44,1.92,11.8-.25,23.92-.35,35.74-.33,8.54-.15,17.17-.37,25.71-.63,2.07-.81,3.34,2.29,3.82.41.46.53,1.89-.65,2.67-.48,13.17.15,26.44,1.69,39.62,1.67,12.9.73,25.74-1.77,38.63-.31,19.78,1.33,39.73.06,59.54.28,1.05.24,4.4-.12,5.38-.17.12-.52.7-.68.69-1.24.1-.12.29-.16.45-.19.14-.08.23-.22.35-.35.11-.12.27-.14.35-.32-.02-.07.09-.06.12-.04,0-.12.04-.17.04-.28.03,0,0-.06,0-.08,0-.13.12.02.13-.08,0-.06.1-.09.12-.03.06-.07.16-.05.24-.03.19.12.41,0,.63-.08.29-.08.48-.34.57-.59.02-.08.09-.07.15-.05.05-.04.07-.12.13-.15.23-.06.34,0,.56-.13.15-.12.46-.16.52-.28.04-.18.12.13.2.08.03.06.09-.03.15-.01.06-.06.2.09.2-.05.14-.16.36-.12.48-.31.19-.07.18-.29.39-.33.34-.12.74-.12.96-.41.2-.02.22-.21.4-.28.03-.12-.07-.16.07-.21.11-.03.27,0,.4-.08.13,0,.23-.19.35-.08.13-.05.17-.17.33-.08.32.04.67-.29.92-.01.58.21,1.19.16,1.79.16.36.02.65-.24,1-.12.75-.06,1.36-.42,2.02-.75.1-.05-.02-.15.07-.21.06-.03.1-.05.11-.12.02-.04.26-.1.16-.16,0-.11.3-.2.41-.2.08-.14.27-.23.45-.2.19-.11.41-.39.64-.21.55-.46,1.21-.68,1.9-.91.31-.12.6-.34.93-.33.2-.23.58-.06.81-.23,1.48-.64,3-1.02,4.45-1.68.33-.14.71-.13,1.07-.12.14-.03.28-.03.44-.09.04-.04.14.03.08.07.05,0,.11-.03.16-.01.12.03.22-.11.33-.13.05-.06.22.04.21-.08.19.01.41.07.59,0,.22-.07.42-.04.41-.29-.05,0-.05-.11-.04-.15-.09-.07.07-.06.09-.08.07.05.12-.02.19-.04,0-.14-.06-.39-.04-.56.07,0,.05-.05.09-.11.09-.02.03-.06-.03-.08-.1-.04-.3-.08-.28-.2.12-.04,0-.17.12-.2.05-.11-.06-.18-.16-.17-.02-.14.17-.11.15-.23.11-.1-.14-.27-.13-.41-.24-.33.31-.25.47-.35.2-.18.32-.5.49-.75.15-.24.51-.31.44-.67-.07-.17.12-.19.2-.27.04-.17-.05-.41-.03-.61.07-.13-.09-.17-.15-.27-.08-.23.2-.37.36-.44.17-.03.26-.19.33-.32.17-.04.33-.11.48-.19.06-.02.19.05.16-.07.07-.31-.25-1.09.37-.65.12.03.25,0,.31-.13.22.06.39.1.61.09.15.05.26-.17.39-.2.24,0,.46.02.71-.07.11.06.1.27.25.33.16-.03.38.09.51.17.08-.1.23.02.31-.07.14-.23.24-.52.49-.61.13-.04.25-.06.36-.13.18,0,.33.04.51-.07.15-.01.3.05.43.12.12-.04.16-.14.29-.19.17-.22.5-.15.65-.39.11-.03.27,0,.4-.05.1.04.17-.1.31-.05.03-.25.35-.19.52-.25.24-.27.64-.2.97-.28.04-.05.01-.1-.01-.15-.1-.21.18-.16.27-.24.2-.11.41-.14.61-.24.08-.29.4-.27.59-.4.07-.14-.1-.4.16-.44.15-.03.38-.13.32-.29-.2-.08-.35-.3-.48-.44.14-.24.3-.44.49-.6.05-.28.32-.46.45-.72-.04-.17-.08-.27-.15-.4.02-.16-.13-.28-.11-.43,0-.15.06-.31.08-.47.06-.07.29-.35.16-.29-.15,0-.21-.21-.33-.25-.11.02-.21-.01-.15-.13-.03-.06-.12-.13-.09-.23-.02-.07-.11-.02-.15-.07,0-.09-.08-.16-.05-.24.2-.04.03-.23.08-.35-.03-.25.18-.27.32-.4.08.08.12.13.23.12.1-.04.05-.13.08-.2-.02-.09.09-.16.13-.25.14.02.17.15.31.07.13.03.18-.05.27-.15.02-.14.22,0,.25-.11.07-.05.05-.17.09-.24.1-.06.26-.12.24-.29.12-.13-.06-.25-.03-.37-.08-.21.27-.44.33-.19.11.1.19-.26.29-.09.02-.01.05-.02.04-.05-.06-.18.15.06.17.07.15-.22.6-.05.79-.29.11.06.08.21.21.24.11-.02.18-.13.25-.21.13-.01.25.1.35,0,.03-.14.16-.27.2-.41-.01-.14.14,0,.23-.05.09.02.05-.11.13-.13.07-.14.14-.27.21-.39.01-.06.09-.08.15-.07.03-.06.06-.12.12-.15.14-.11.41-.02.49.15,0,.1.09,0,.13-.03,0-.06-.03-.15.03-.2.16-.29.08-.62.17-.93.11-.09.33-.14.48-.16.11.09.31.15.45.08.14-.11.05-.3.07-.48-.09-.24.03-.43-.03-.65-.03-.13-.17-.25-.19-.39.08-.16-.16-.36.03-.45.09-.18.3-.05.41-.21.01-.16-.11-.24-.23-.32.05-.08-.03-.12-.08-.15-.05,0-.03-.14-.05-.19-.04-.05,0-.1.03-.13-.01-.07-.18-.08-.11-.17.09-.07.17-.17.09-.27.05-.09.05-.3-.03-.37-.11-.06.05-.11.03-.2-.08-.14-.28-.4-.25-.56.14-.21.27-.57.56-.47.08-.18.28-.19.41-.29.03-.13.23-.11.32-.21.29-.23.7-.35.89-.53.05-.03.11.06.16.11.06.06.14-.05.2-.04.05-.04.08-.12.08-.16.19.04.18-.27.37-.29.09.02.12-.09.17-.12.08.05.18-.07.25-.04.06,0,.06-.07.03-.11.06-.02.05-.09.07-.13-.05-.15.15-.22.25-.23,0,.06.13.16.17.07.04,0,.1-.02.08-.07.1-.19.46-.09.59-.23.19-.22.34-.53.53-.69.42-.32.83-.61,1.31-.88.05-.09.14-.14.09-.25.15-.16.5-.28.71-.44.53-.31.98-.83,1.43-1.05,0,.04.03.12.05.09.05-.06.1-.05.15-.01.11-.1.16-.23.32-.27.04.08.11-.05.12,0,.11.03.23,0,.31-.11-.18-.14-.03-.33.11-.36.08-.01.14-.11.21-.05.06.03.09.22.19.13.03-.08.17-.11.2-.2.07-.12.21-.14.33-.25.05-.14.03-.27.21-.33.15-.08.29-.2.44-.23.07.31.41.05.45-.12.01-.05.03-.06-.03-.08.06-.08.18-.1.29-.13.15-.09.4-.28.56-.23.07.07.09-.11.13-.05.14.07.19-.08.24-.16.07,0,.15-.04.2.01.08.01.08-.07.13-.09-.01-.07.15-.07.17-.13.02-.1.12-.13.2-.17.09-.04.15.03.24.04.04-.02.04-.07.04-.12.05-.04.14-.07.13-.13.1-.04.19.03.28,0,.43.03.8-.4,1.16-.47.24.06.4-.21.6-.16.3-.15.59-.33.95-.33.2.02.32-.07.47-.16.07-.05.23-.03.28-.15.25-.04.49-.07.71-.21.06-.07.13-.06.09-.17-.05.01.04-.08-.03-.09,0-.12.16-.08.23-.13.29-.04-.08-.4.07-.52.05.03.08,0,.13,0,.03.06.09.09.17.09.04-.03.01-.06.01-.11.05-.06.13.03.19-.03.1-.07.29-.12.41-.12.03-.14.17-.17.24-.27,1.31-2.14,4.25-4.22,6.09-6.25,3.62-3.56,7.69-7.13,10.96-10.89Z"/>
  </g>
</svg>